<svg xmlns="http://www.w3.org/2000/svg" xmlns:xlink="http://www.w3.org/1999/xlink" width="40" zoomAndPan="magnify" viewBox="0 0 30 30.000001" height="40" preserveAspectRatio="xMidYMid meet" version="1.0"><defs><clipPath id="15a61d054a"><path d="M 0.484375 13 L 29.515625 13 L 29.515625 16 L 0.484375 16 Z M 0.484375 13 " clip-rule="nonzero"/></clipPath><clipPath id="4c4d2cd31d"><path d="M 16 2.902344 L 29.515625 2.902344 L 29.515625 26.855469 L 16 26.855469 Z M 16 2.902344 " clip-rule="nonzero"/></clipPath></defs><g clip-path="url(#15a61d054a)"><path fill="#ffffff" d="M 1.5625 15.800781 L 28.570312 15.800781 C 28.707031 15.800781 28.835938 15.773438 28.957031 15.722656 C 29.082031 15.671875 29.191406 15.597656 29.285156 15.503906 C 29.382812 15.410156 29.457031 15.300781 29.507812 15.175781 C 29.558594 15.050781 29.582031 14.921875 29.582031 14.789062 C 29.582031 14.652344 29.558594 14.523438 29.507812 14.402344 C 29.457031 14.277344 29.382812 14.167969 29.285156 14.070312 C 29.191406 13.976562 29.082031 13.902344 28.957031 13.851562 C 28.835938 13.800781 28.707031 13.777344 28.570312 13.777344 L 1.5625 13.777344 C 1.429688 13.777344 1.300781 13.800781 1.175781 13.851562 C 1.050781 13.902344 0.941406 13.976562 0.847656 14.070312 C 0.753906 14.167969 0.679688 14.277344 0.628906 14.402344 C 0.578125 14.523438 0.550781 14.652344 0.550781 14.789062 C 0.550781 14.921875 0.578125 15.050781 0.628906 15.175781 C 0.679688 15.300781 0.753906 15.410156 0.847656 15.503906 C 0.941406 15.597656 1.050781 15.671875 1.175781 15.722656 C 1.300781 15.773438 1.429688 15.800781 1.5625 15.800781 Z M 1.5625 15.800781 " fill-opacity="1" fill-rule="nonzero"/></g><g clip-path="url(#4c4d2cd31d)"><path fill="#ffffff" d="M 17.769531 26.605469 C 18.046875 26.605469 18.285156 26.503906 18.484375 26.308594 L 29.285156 15.503906 C 29.382812 15.410156 29.453125 15.300781 29.507812 15.175781 C 29.558594 15.050781 29.582031 14.921875 29.582031 14.789062 C 29.582031 14.652344 29.558594 14.523438 29.507812 14.402344 C 29.453125 14.277344 29.382812 14.167969 29.285156 14.074219 L 18.484375 3.269531 C 18.390625 3.167969 18.28125 3.089844 18.15625 3.035156 C 18.03125 2.980469 17.898438 2.949219 17.761719 2.949219 C 17.625 2.945312 17.492188 2.96875 17.363281 3.019531 C 17.234375 3.074219 17.125 3.148438 17.027344 3.246094 C 16.929688 3.339844 16.855469 3.453125 16.804688 3.582031 C 16.753906 3.707031 16.726562 3.839844 16.730469 3.976562 C 16.734375 4.117188 16.761719 4.246094 16.816406 4.371094 C 16.875 4.496094 16.953125 4.609375 17.050781 4.703125 L 27.136719 14.789062 L 17.050781 24.875 C 16.90625 25.019531 16.816406 25.191406 16.777344 25.394531 C 16.734375 25.59375 16.753906 25.789062 16.832031 25.976562 C 16.910156 26.167969 17.035156 26.320312 17.207031 26.433594 C 17.375 26.546875 17.5625 26.605469 17.769531 26.605469 Z M 17.769531 26.605469 " fill-opacity="1" fill-rule="nonzero"/></g></svg>